<svg width="16" height="19" viewBox="0 0 16 19" fill="none" xmlns="http://www.w3.org/2000/svg">
<g clip-path="url(#clip0_2_420)">
<path d="M15.731 2.32575C15.6778 2.26989 15.6137 2.22544 15.5427 2.1951C15.4717 2.16476 15.3953 2.14915 15.3182 2.14924H15.3136C15.1235 2.18787 14.9545 2.2553 14.8022 2.34848L14.8091 2.34469C14.553 2.47424 14.2803 2.61893 13.9939 2.77954C13.6821 2.95102 13.3549 3.0928 13.0166 3.20302L12.975 3.21515C12.6253 3.33887 12.2579 3.40488 11.8871 3.4106H11.8841L11.8462 3.41136C11.5636 3.41136 11.2962 3.34621 11.0583 3.22954L11.0689 3.23408C10.4498 2.93098 9.81102 2.67003 9.15679 2.45302L9.04012 2.41893C8.45485 2.23871 7.84569 2.14804 7.2333 2.14999H7.18406H7.18633C5.80069 2.2111 4.4493 2.60003 3.24315 3.28484L3.28634 3.26211C2.9833 3.41211 2.76967 3.52802 2.63027 3.61363L2.49164 2.59772C2.72739 2.39343 2.89259 2.11989 2.96363 1.81614C3.03468 1.51238 3.00795 1.19395 2.88727 0.906291C2.76658 0.618632 2.5581 0.376452 2.29159 0.214322C2.02508 0.0521922 1.71416 -0.0215993 1.40322 0.00348093C1.09228 0.0285612 0.797209 0.151231 0.56013 0.35398C0.323051 0.556729 0.156083 0.829192 0.0830601 1.13248C0.0100372 1.43576 0.0346924 1.75436 0.153506 2.0428C0.27232 2.33124 0.479219 2.57477 0.744668 2.73863L0.750729 2.74242L2.75073 17.428C2.81058 17.8561 3.17421 18.1818 3.61361 18.1826C3.65603 18.1826 3.69846 18.1795 3.73937 18.1742L3.73482 18.175C3.84911 18.16 3.95931 18.1225 4.05905 18.0647C4.15879 18.007 4.24611 17.93 4.31597 17.8383C4.38583 17.7466 4.43685 17.642 4.46609 17.5305C4.49533 17.419 4.50221 17.3028 4.48634 17.1886L4.48709 17.1932L3.68255 11.2909C4.83782 10.6466 6.12464 10.2738 7.44543 10.2008L7.46891 10.2H7.47573C7.94467 10.2 8.39694 10.2742 8.81967 10.4121L8.78861 10.4038C9.17037 10.5178 9.53907 10.6717 9.88861 10.8629L9.85906 10.8477C10.1424 11.0076 10.4742 11.1576 10.8197 11.2788L10.8636 11.2924C11.2038 11.4197 11.5969 11.4939 12.0068 11.497H12.0083C13.2305 11.4206 14.4152 11.0452 15.4583 10.4038L15.4257 10.4227C15.5659 10.3545 15.6856 10.2697 15.7894 10.1674C15.8727 10.0674 15.9139 9.93893 15.9045 9.80908V9.8106V2.73863C15.9046 2.66187 15.8893 2.58587 15.8593 2.51518C15.8294 2.4445 15.7855 2.38058 15.7303 2.32727L15.731 2.32575Z" fill="white"/>
</g>
<defs>
<clipPath id="clip0_2_420">
<rect width="16" height="18.1818" fill="white"/>
</clipPath>
</defs>
</svg>
